<?xml version="1.0" encoding="utf-8"?>
<!-- Generator: Adobe Illustrator 25.2.1, SVG Export Plug-In . SVG Version: 6.00 Build 0)  -->
<svg version="1.1" id="Capa_1" xmlns="http://www.w3.org/2000/svg" xmlns:xlink="http://www.w3.org/1999/xlink" x="0px" y="0px"
	 viewBox="0 0 429.7 429.7" style="enable-background:new 0 0 429.7 429.7;" xml:space="preserve">
<style type="text/css">
	.st0{fill:#D31E0D;}
</style>
<g>
	<g>
		<path class="st0" d="M227.5,13.4l-0.4-1C219.4,6.1,215.4-0.4,207.4,0l-0.3,0l-0.3,0c-0.3,0-0.7,0-1,0C198,0,193,6.5,187.1,12.4
			l-0.5,1L5.9,176.1c-6.9,6.2-6.5,12.7-5,17c2.7,7.6,10.4,13.4,18.3,13.8l1.6,0.3c0.7,0.2,1.4,0.3,2.1,0.4c23,2.4,45.5,2.9,64.5,3
			l27.2,0v197.2c0,11,7.2,15.2,11.5,16.6l1,0.3l0.8,0.7c3.1,2.7,7,4.1,11.6,4.1h138.4c4.6,0,8.5-1.4,11.6-4.1l0.8-0.7l1-0.3
			c4.3-1.5,11.5-5.6,11.5-16.6V210.7l5.1,0c19-0.2,60.2-0.7,83.2-3c0.7-0.1,1.4-0.3,2.1-0.4l1.6-0.3c8-0.4,15.6-6.3,18.3-13.8
			c1.5-4.3,1.9-10.8-5-17L227.5,13.4z M336.3,173.4c-11.1,0.2-41,0.3-52.1,0.3c-5.2,0-9.4,1.6-12.5,4.8c-3.4,3.4-5.3,8.5-5.3,13.9
			l0,0.6l-0.2,0.6c-0.4,1.8-0.6,3.3-0.6,4.9v194H151.7v-194c0-1.6-0.2-3.2-0.6-4.9l-0.2-0.6l0-0.6c0-5.5-1.9-10.5-5.3-13.9
			c-3.1-3.2-7.4-4.8-12.5-4.8c-11.1,0-44.3-0.1-55.4-0.3l-13.2-0.2L207.1,44.9l142.5,128.2L336.3,173.4z"/>
	</g>
</g>
</svg>
